<?xml version="1.0" encoding="UTF-8"?>
<svg xmlns="http://www.w3.org/2000/svg" version="1.1" width="1024" height="1024" viewBox="0 0 500 500"><rect x="0" y="0" width="500" height="500" fill="#ffffff"/><g transform="scale(16.129)"><g transform="translate(1,1)"><g><g transform="translate(3.5,3.5)"><path fill-rule="evenodd" d="M-3.5 -3.5L3.5 -3.5L3.5 3.5L-3.5 3.5ZM-2.5 -2.5L-2.5 2.5L2.5 2.5L2.5 -2.5Z" fill="#000000"/><path fill-rule="evenodd" d="M-1.5 -1.5L1.5 -1.5L1.5 1.5L-1.5 1.5Z" fill="#000000"/></g></g><g><g transform="translate(25.5,3.5)"><g transform="rotate(90)"><path fill-rule="evenodd" d="M-3.5 -3.5L3.5 -3.5L3.5 3.5L-3.5 3.5ZM-2.5 -2.5L-2.5 2.5L2.5 2.5L2.5 -2.5Z" fill="#000000"/><path fill-rule="evenodd" d="M-1.5 -1.5L1.5 -1.5L1.5 1.5L-1.5 1.5Z" fill="#000000"/></g></g></g><g><g transform="translate(3.5,25.5)"><g transform="rotate(-90)"><path fill-rule="evenodd" d="M-3.5 -3.5L3.5 -3.5L3.5 3.5L-3.5 3.5ZM-2.5 -2.5L-2.5 2.5L2.5 2.5L2.5 -2.5Z" fill="#000000"/><path fill-rule="evenodd" d="M-1.5 -1.5L1.5 -1.5L1.5 1.5L-1.5 1.5Z" fill="#000000"/></g></g></g><path fill-rule="evenodd" d="M9 0L9 1L10 1L10 0ZM12 0L12 1L11 1L11 2L8 2L8 8L9 8L9 9L7 9L7 8L2 8L2 9L1 9L1 8L0 8L0 10L2 10L2 13L3 13L3 14L2 14L2 15L0 15L0 21L1 21L1 18L3 18L3 17L5 17L5 18L4 18L4 19L8 19L8 20L3 20L3 19L2 19L2 21L8 21L8 22L9 22L9 21L10 21L10 24L9 24L9 23L8 23L8 27L9 27L9 28L8 28L8 29L10 29L10 26L11 26L11 21L13 21L13 23L12 23L12 24L14 24L14 25L15 25L15 26L14 26L14 29L15 29L15 26L17 26L17 25L18 25L18 29L20 29L20 28L19 28L19 25L20 25L20 26L21 26L21 25L23 25L23 27L24 27L24 25L25 25L25 23L26 23L26 25L29 25L29 23L27 23L27 22L28 22L28 20L25 20L25 19L29 19L29 17L28 17L28 18L26 18L26 17L24 17L24 16L25 16L25 15L27 15L27 16L29 16L29 14L28 14L28 13L27 13L27 14L26 14L26 13L24 13L24 12L26 12L26 11L27 11L27 10L28 10L28 9L27 9L27 8L22 8L22 9L24 9L24 10L25 10L25 11L19 11L19 10L21 10L21 6L20 6L20 7L19 7L19 6L18 6L18 5L19 5L19 3L20 3L20 5L21 5L21 3L20 3L20 1L21 1L21 0L19 0L19 2L16 2L16 4L12 4L12 5L13 5L13 6L12 6L12 7L13 7L13 8L14 8L14 9L15 9L15 10L17 10L17 11L16 11L16 13L12 13L12 14L11 14L11 15L10 15L10 14L9 14L9 15L8 15L8 14L6 14L6 13L9 13L9 11L10 11L10 10L11 10L11 12L10 12L10 13L11 13L11 12L12 12L12 11L13 11L13 10L11 10L11 9L10 9L10 8L9 8L9 5L10 5L10 7L11 7L11 2L12 2L12 3L13 3L13 0ZM15 0L15 1L17 1L17 0ZM14 2L14 3L15 3L15 2ZM9 3L9 4L10 4L10 3ZM17 3L17 4L16 4L16 5L18 5L18 3ZM13 6L13 7L14 7L14 8L15 8L15 7L16 7L16 9L17 9L17 10L18 10L18 8L17 8L17 7L18 7L18 6L17 6L17 7L16 7L16 6L15 6L15 7L14 7L14 6ZM19 8L19 9L20 9L20 8ZM2 9L2 10L3 10L3 11L4 11L4 10L7 10L7 9L4 9L4 10L3 10L3 9ZM9 9L9 10L10 10L10 9ZM26 9L26 10L27 10L27 9ZM0 11L0 12L1 12L1 11ZM6 11L6 12L5 12L5 13L4 13L4 12L3 12L3 13L4 13L4 14L3 14L3 15L2 15L2 17L3 17L3 16L5 16L5 17L6 17L6 18L8 18L8 17L6 17L6 16L8 16L8 15L6 15L6 14L5 14L5 13L6 13L6 12L8 12L8 11ZM14 11L14 12L15 12L15 11ZM17 11L17 13L16 13L16 14L18 14L18 15L16 15L16 17L17 17L17 18L15 18L15 17L14 17L14 16L15 16L15 15L14 15L14 16L13 16L13 15L11 15L11 16L10 16L10 19L9 19L9 20L10 20L10 21L11 21L11 20L13 20L13 21L16 21L16 22L17 22L17 23L16 23L16 25L17 25L17 24L18 24L18 23L19 23L19 22L20 22L20 20L17 20L17 21L16 21L16 19L20 19L20 18L21 18L21 19L23 19L23 18L24 18L24 19L25 19L25 18L24 18L24 17L23 17L23 18L21 18L21 17L22 17L22 16L19 16L19 17L18 17L18 15L25 15L25 14L24 14L24 13L23 13L23 14L21 14L21 13L22 13L22 12L21 12L21 13L20 13L20 12L19 12L19 11ZM28 11L28 12L29 12L29 11ZM18 13L18 14L19 14L19 13ZM4 14L4 15L5 15L5 14ZM11 16L11 18L12 18L12 19L13 19L13 18L12 18L12 17L13 17L13 16ZM14 19L14 20L15 20L15 19ZM18 21L18 22L19 22L19 21ZM21 21L21 24L24 24L24 21ZM25 21L25 22L27 22L27 21ZM22 22L22 23L23 23L23 22ZM14 23L14 24L15 24L15 23ZM9 25L9 26L10 26L10 25ZM12 25L12 26L13 26L13 25ZM26 26L26 27L25 27L25 28L24 28L24 29L27 29L27 27L28 27L28 28L29 28L29 27L28 27L28 26ZM16 27L16 28L17 28L17 27ZM12 28L12 29L13 29L13 28ZM21 28L21 29L23 29L23 28Z" fill="#000000"/></g></g></svg>
